<?xml version="1.0" encoding="UTF-8"?>
<!DOCTYPE svg PUBLIC "-//W3C//DTD SVG 1.1//EN" "http://www.w3.org/Graphics/SVG/1.1/DTD/svg11.dtd">
<svg xmlns="http://www.w3.org/2000/svg" version="1.1" width="144px" height="48px" style="shape-rendering:geometricPrecision; text-rendering:geometricPrecision; image-rendering:optimizeQuality; fill-rule:evenodd; clip-rule:evenodd" xmlns:xlink="http://www.w3.org/1999/xlink">
<g><path style="opacity:0.943" fill="#fad400" d="M 21.5,3.5 C 22.8333,3.5 24.1667,3.5 25.5,3.5C 26.4691,7.60804 28.1358,11.4414 30.5,15C 34.7901,15.9225 39.1234,16.4225 43.5,16.5C 41.3513,21.3305 38.018,25.3305 33.5,28.5C 34.6587,32.801 35.6587,37.1344 36.5,41.5C 31.8466,40.6736 27.5133,39.007 23.5,36.5C 19.4867,39.007 15.1534,40.6736 10.5,41.5C 11.3413,37.1344 12.3413,32.801 13.5,28.5C 10.2085,25.7106 7.04184,22.7106 4,19.5C 3.51722,18.552 3.35055,17.552 3.5,16.5C 7.89668,16.5754 12.23,16.0754 16.5,15C 18.858,11.4522 20.5247,7.61887 21.5,3.5 Z"/></g>
<g><path style="opacity:0.905" fill="#dddddd" d="M 70.5,3.5 C 74.0916,7.00747 76.4249,11.3408 77.5,16.5C 82.2137,16.1734 86.8804,16.5067 91.5,17.5C 88.516,20.9846 85.3493,24.318 82,27.5C 81.9672,31.3531 82.4672,35.1864 83.5,39C 83.1667,39.8333 82.8333,40.6667 82.5,41.5C 78.8333,39.5 75.1667,37.5 71.5,35.5C 67.8333,37.5 64.1667,39.5 60.5,41.5C 60.1667,40.6667 59.8333,39.8333 59.5,39C 60.5328,35.1864 61.0328,31.3531 61,27.5C 57.6507,24.318 54.484,20.9846 51.5,17.5C 56.1196,16.5067 60.7863,16.1734 65.5,16.5C 66.8825,12.0664 68.5492,7.73309 70.5,3.5 Z"/></g>
<g><path style="opacity:0.907" fill="#669965" d="M 118.5,3.5 C 122.092,7.00747 124.425,11.3408 125.5,16.5C 130.214,16.1734 134.88,16.5067 139.5,17.5C 136.516,20.9846 133.349,24.318 130,27.5C 129.967,31.3531 130.467,35.1864 131.5,39C 131.167,39.8333 130.833,40.6667 130.5,41.5C 126.833,39.5 123.167,37.5 119.5,35.5C 115.833,37.5 112.167,39.5 108.5,41.5C 108.167,40.6667 107.833,39.8333 107.5,39C 108.533,35.1864 109.033,31.3531 109,27.5C 105.651,24.318 102.484,20.9846 99.5,17.5C 104.12,16.5067 108.786,16.1734 113.5,16.5C 114.883,12.0664 116.549,7.73309 118.5,3.5 Z"/></g>
</svg>
